<?xml version="1.0" encoding="UTF-8"?>
<svg width="33px" height="33px" viewBox="0 0 33 33" version="1.1" xmlns="http://www.w3.org/2000/svg" xmlns:xlink="http://www.w3.org/1999/xlink">
    <title>切片</title>
    <g id="页面-1" stroke="none" stroke-width="1" fill="none" fill-rule="evenodd">
        <g id="码垛hmi-链接控制器" transform="translate(-624.000000, -310.000000)" fill="#909399" fill-rule="nonzero">
            <g id="icon/连接绑定" transform="translate(624.263719, 310.263714)">
                <path d="M12.9869032,14.494185 L13.7401166,15.244397 L9.22085553,19.763658 C8.38884089,20.5956726 8.38884089,21.9446398 9.22085555,22.7766545 C10.0528702,23.6086691 11.4018374,23.6086691 12.2338521,22.7766545 L16.7531131,18.2573934 L17.5062388,19.0105191 C18.7547478,20.2578748 18.7556827,22.2811661 17.5083274,23.5296927 L9.97398976,31.0640085 C8.72608344,32.3119629 6.70278771,32.3120022 5.45481599,31.0640961 L0.935991522,26.5462765 C-0.311962937,25.2983701 -0.312002257,23.2750744 0.935904064,22.0271026 L8.46772935,14.4942725 C9.71563573,13.2463181 11.7389315,13.2462787 12.9869032,14.494185 Z M20.5187457,11.4593944 C20.9403036,11.8697143 20.9494141,12.5440834 20.5390945,12.9656414 C20.5324047,12.9725145 20.5256223,12.9792969 20.5187492,12.9859868 L11.4807514,22.02547 C11.0673891,22.4441226 10.3929081,22.4484111 9.97425542,22.0350485 C9.55560274,21.6216861 9.55131424,20.9472051 9.9646769,20.5285524 C9.96776536,20.5254244 9.97087316,20.5223156 9.97400006,20.5192261 L19.0124987,11.4797431 C19.4228185,11.0581852 20.0971877,11.0490748 20.5187457,11.4593944 Z M26.5451667,0.935904018 L31.0645154,5.45525275 C32.3121945,6.70343424 32.3117838,8.72672997 31.063603,9.97442645 L23.5317597,17.5062386 C22.2838534,18.754193 20.2605577,18.7542323 19.0125859,17.5063262 L18.2593725,16.7531127 L21.272369,13.7401162 C22.1043838,12.9081014 22.1043838,11.5591342 21.2723689,10.7271196 C20.4403542,9.89510493 19.091387,9.89510493 18.2593724,10.7271199 L15.2463759,13.7401164 L14.4932502,12.9869907 C13.2452957,11.7390843 13.2452564,9.71578854 14.4931627,8.46781681 L22.0259928,0.935991524 C23.2738992,-0.311962929 25.297195,-0.312002249 26.5451667,0.935904018 Z" id="形状结合"></path>
            </g>
        </g>
    </g>
</svg>