<?xml version="1.0" encoding="UTF-8"?>
<svg width="24px" height="24px" viewBox="0 0 24 24" version="1.1" xmlns="http://www.w3.org/2000/svg" xmlns:xlink="http://www.w3.org/1999/xlink">
    <title>切片</title>
    <g id="页面-1" stroke="none" stroke-width="1" fill="none" fill-rule="evenodd">
        <g id="码垛hmi-工艺参数-机器人路径点位" transform="translate(-1185.000000, -20.000000)">
            <g id="编组-4" transform="translate(1042.000000, 20.000000)">
                <g id="icon/工作站备份-19" transform="translate(143.000000, 0.000000)">
                    <g id="工具-2" transform="translate(3.000000, 3.000000)">
                        <path d="M12.4821182,9.99114629 C12.4821182,9.99114629 10.304422,10.5947124 8.78994056,13.2583388 C8.88877077,13.2790187 12.8186443,17.4616599 12.8186443,17.4616599 C13.5214369,18.1794467 14.6696517,18.1794467 15.3724443,17.4616599 L16.3920884,16.4211696 C17.094881,15.7033828 17.094881,14.5380913 16.3920884,13.8200641 L12.4821182,9.99114629 L12.4821182,9.99114629 Z M14.25397,16.7436326 C14.0757554,16.9203741 13.7888732,16.9203741 13.6204958,16.7436326 L10.3439999,13.4038198 C10.1657852,13.2268379 10.1657852,12.9356353 10.3439999,12.7586533 C10.5222145,12.5819118 10.8090967,12.5819118 10.9774741,12.7586533 L14.25397,16.0984661 C14.4223474,16.2648676 14.4223474,16.5563107 14.25397,16.7436326 Z M15.6892958,15.2765581 C15.5110812,15.4532996 15.224199,15.4532996 15.0558216,15.2765581 L11.7694884,11.9367453 C11.5912737,11.7597634 11.5912737,11.4685608 11.7694884,11.2915788 C11.947703,11.1148373 12.2345852,11.1148373 12.4029626,11.2915788 L15.6794586,14.6316321 C15.8675105,14.7980336 15.8675105,15.0892362 15.6892958,15.2765581 Z M4.20691836,5.78782516 L6.86961468,8.57625261 L8.14662911,7.26523964 L5.48393278,4.48739263 L6.11740697,3.83188614 L2.55380008,0.190290304 L0,2.79139584 L3.57344416,6.43275121 L4.20691836,5.78782516 Z" id="形状" fill="#909399"></path>
                        <path d="M14.0121194,0.00048016365 L14.2242295,0.00296838441 C14.2640361,0.00296838441 14.3232884,0.013308362 14.3628663,0.013308362 L14.3628663,0.013308362 L14.3628663,1.86512621 L13.6600737,2.60383345 L13.1256585,3.16579921 L12.5811772,3.73810495 L12.9771844,5.27804022 L14.4422507,5.68370399 L14.986732,5.11139825 L15.521376,4.54967296 L16.2241686,3.81096572 L17.9859543,3.81096572 C17.9957916,3.8525661 17.9957916,3.89416647 17.9957916,3.93576685 C18.0452067,5.07003834 17.6592656,6.22474933 16.8475767,7.06757774 C16.1644587,7.795945 15.2736141,8.1912688 14.3729323,8.27446955 C13.8879322,8.31606992 13.3731915,8.26412957 12.8980287,8.10806805 C12.7989697,8.06646767 12.719814,8.03520727 12.6207551,8.00394688 C12.472281,7.98302646 12.2842291,8.01428685 12.1060144,8.20160877 C11.9513879,8.36413708 10.2737772,10.2249562 8.46380646,12.2353433 L8.02758416,12.719915 C5.91377604,15.0682263 3.77156213,17.4510794 3.77156213,17.4510794 C3.15776247,18.1897867 2.04912544,18.1481863 1.38591067,17.4614194 C0.732533176,16.7643126 0.683118071,15.5886812 1.38591067,14.9538546 C1.38591067,14.9538546 1.39673073,14.9430521 1.41761107,14.9222054 L1.9739941,14.3667064 C2.01499157,14.3257734 2.0578393,14.2829928 2.10244232,14.2384596 L2.71585402,13.6259978 C2.83010552,13.5119216 2.94985859,13.3923511 3.07435347,13.268045 L4.0851022,12.2588021 C4.22855744,12.1155567 4.37485503,11.9694714 4.52323517,11.8213046 L4.97386352,11.3713176 C5.04975626,11.2955318 5.1259797,11.2194152 5.20243886,11.1430625 L5.66326271,10.6828728 C5.97135135,10.3752026 6.28017241,10.0667896 6.58364764,9.76370044 L7.03409132,9.31381796 C7.10824378,9.23975581 7.18187218,9.16621599 7.25488155,9.09329329 L7.68474956,8.66392088 C7.7549029,8.59384583 7.82424726,8.52457749 7.89268767,8.45621064 L8.48168043,7.86780891 C8.54384238,7.80570419 8.60481546,7.74478535 8.6645047,7.68514718 L9.89490521,6.45522314 C10.0393416,6.3106836 10.130313,6.21948917 10.1559479,6.19348893 C10.3737404,5.95422666 10.3636744,5.72530437 10.3142593,5.53798245 C10.3142593,5.51706203 10.304422,5.50672205 10.304422,5.49638207 C10.1262074,4.95533673 10.066955,4.38327146 10.1065328,3.81096572 C10.1758512,2.86425661 10.5617924,1.93822745 11.2547477,1.20986019 C12.0762738,0.356691805 13.1652363,-0.0386319906 14.2242295,0.00296838441 Z M2.91949489,15.6947706 C2.69626956,15.5293547 2.3999371,15.5529855 2.19759953,15.7656631 C1.96996976,16.0049254 1.96996976,16.3692292 2.19759953,16.6084915 C2.42522929,16.8477538 2.77182135,16.8477538 2.99945112,16.6084915 C3.20717324,16.3699699 3.20717324,16.0041852 2.99945113,15.7656631 L2.99945113,15.7656631 Z" id="路径-2" fill="#409EFF"></path>
                    </g>
                </g>
            </g>
        </g>
    </g>
</svg>