<?xml version="1.0" encoding="UTF-8"?>
<svg width="24px" height="24px" viewBox="0 0 24 24" version="1.1" xmlns="http://www.w3.org/2000/svg" xmlns:xlink="http://www.w3.org/1999/xlink">
    <title>切片</title>
    <g id="页面-1" stroke="none" stroke-width="1" fill="none" fill-rule="evenodd">
        <g id="码垛hmi-工艺参数-机器人路径点位" transform="translate(-1042.000000, -20.000000)" fill="#A0D07F">
            <g id="编组-4" transform="translate(1042.000000, 20.000000)">
                <g id="check" transform="translate(3.000000, 5.250000)">
                    <path d="M6.08386277,10.7936508 L1.25794155,6.00907029 C1.05972046,5.81254724 0.823379924,5.75207861 0.548919949,5.8276644 C0.274459975,5.90325019 0.10292249,6.07331822 0.0343074968,6.33786848 C-0.0343074968,6.60241875 0.0304955527,6.84051398 0.228716645,7.0521542 L6.08386277,12.8571429 L17.794155,1.24716553 C17.931385,1.09599395 17.9961881,0.922146636 17.9885642,0.725623583 C17.9809403,0.529100529 17.9047014,0.359032502 17.7598475,0.215419501 C17.6149936,0.0718065004 17.4472681,0 17.2566709,0 C17.0660737,0 16.8945362,0.0680272109 16.7420584,0.204081633 L6.08386277,10.7936508 Z" id="路径"></path>
                </g>
            </g>
        </g>
    </g>
</svg>